<svg t="1572857200054" class="icon" viewBox="0 0 1024 1024" version="1.1" xmlns="http://www.w3.org/2000/svg" p-id="2641" width="900" height="900"><path d="M776 864H264c-51.2 0-96-44.8-96-96V256c0-51.2 44.8-96 96-96h512c51.2 0 96 44.8 96 96v512c0 51.2-44.8 96-96 96zM264 224c-19.2 0-32 12.8-32 32v512c0 19.2 12.8 32 32 32h512c19.2 0 32-12.8 32-32V256c0-19.2-12.8-32-32-32H264z" p-id="2642" fill="#909399"></path><path d="M552 409.6c0 35.2 28.8 64 64 64s64-28.8 64-64-28.8-64-64-64-64 28.8-64 64z m160 268.8c-57.6-44.8-83.2-32-121.6-12.8-25.6 12.8-53.6 27.6-104 17.2-44.4-17.2-52-56.4-70-98-15.2-28.8-25.2-44.8-45.2-60-26.8-19.6-53.6 6.4-53.6 6.4-19.2 12.8-44.8 6.4-51.2-6.4-6.4-12.8-2.4-32 12.8-44.8 7.6-4.4 52.4-49.6 117.6-12.8 32.8 22 51.2 44.8 71.2 89.6 15.2 34 16.8 57.6 37.6 66 25.6 6.4 33.6-2 59.2-14.8 44.8-19.2 96-44.8 185.6 25.6 19.2 12.8 22.4 30 12.8 44.8-11.2 10-25.6 19.2-51.2 0z" p-id="2643" fill="#909399"></path></svg>
