<svg
 xmlns="http://www.w3.org/2000/svg"
 xmlns:xlink="http://www.w3.org/1999/xlink"
 width="24px" height="25px">
<path fill-rule="evenodd"  fill="rgb(0, 176, 245)"
 d="M21.126,3.877 C21.108,3.857 21.083,3.850 21.063,3.833 C21.025,3.799 20.986,3.771 20.943,3.746 C20.902,3.725 20.862,3.707 20.818,3.693 C20.773,3.678 20.729,3.668 20.682,3.662 C20.635,3.656 20.591,3.656 20.544,3.659 C20.497,3.661 20.453,3.669 20.408,3.680 C20.360,3.693 20.316,3.711 20.271,3.733 C20.247,3.745 20.221,3.746 20.198,3.761 C20.168,3.780 20.135,3.800 20.095,3.823 C18.729,4.612 16.984,4.146 16.196,2.783 C15.916,2.297 15.789,1.753 15.818,1.205 C15.820,1.178 15.809,1.155 15.807,1.129 C15.804,1.079 15.798,1.032 15.786,0.984 C15.774,0.938 15.759,0.896 15.739,0.855 C15.718,0.812 15.695,0.774 15.668,0.735 C15.639,0.698 15.609,0.665 15.575,0.634 C15.540,0.602 15.505,0.576 15.465,0.551 C15.423,0.524 15.380,0.505 15.332,0.488 C15.307,0.479 15.288,0.462 15.263,0.455 L15.263,0.455 C13.419,0.001 11.491,-0.013 9.637,0.425 C9.606,0.432 9.583,0.452 9.554,0.463 C9.507,0.480 9.463,0.498 9.421,0.524 C9.381,0.550 9.347,0.579 9.313,0.611 C9.279,0.644 9.246,0.675 9.219,0.713 C9.191,0.751 9.171,0.791 9.151,0.834 C9.131,0.876 9.114,0.918 9.103,0.963 C9.090,1.010 9.087,1.059 9.085,1.109 C9.084,1.140 9.072,1.167 9.075,1.200 C9.166,2.292 8.623,3.353 7.656,3.911 C6.687,4.470 5.498,4.410 4.597,3.785 C4.571,3.766 4.541,3.763 4.513,3.749 C4.469,3.725 4.426,3.704 4.379,3.690 C4.333,3.677 4.289,3.672 4.242,3.668 C4.196,3.664 4.151,3.661 4.104,3.666 C4.057,3.671 4.013,3.683 3.968,3.697 C3.924,3.710 3.882,3.725 3.839,3.746 C3.796,3.769 3.759,3.800 3.720,3.832 C3.696,3.851 3.667,3.861 3.645,3.884 L3.645,3.884 C2.349,5.261 1.402,6.922 0.871,8.728 C0.863,8.756 0.868,8.783 0.864,8.810 C0.855,8.859 0.849,8.907 0.851,8.956 C0.853,9.003 0.859,9.046 0.869,9.092 C0.879,9.139 0.892,9.181 0.911,9.224 C0.930,9.267 0.953,9.306 0.980,9.345 C1.006,9.383 1.034,9.417 1.067,9.450 C1.103,9.485 1.141,9.513 1.184,9.541 C1.207,9.555 1.222,9.578 1.248,9.590 C1.747,9.837 2.165,10.225 2.449,10.719 C3.237,12.083 2.768,13.828 1.402,14.616 L1.402,14.616 C1.351,14.645 1.304,14.671 1.261,14.693 C1.235,14.706 1.219,14.729 1.195,14.744 C1.154,14.772 1.116,14.800 1.081,14.834 C1.047,14.868 1.020,14.903 0.993,14.941 C0.967,14.981 0.945,15.019 0.926,15.062 C0.908,15.106 0.895,15.149 0.885,15.195 C0.875,15.240 0.869,15.284 0.868,15.331 C0.867,15.381 0.872,15.428 0.882,15.478 C0.886,15.505 0.881,15.532 0.889,15.559 L0.889,15.558 C1.155,16.438 1.521,17.288 1.987,18.094 C2.453,18.902 3.006,19.644 3.635,20.314 C3.654,20.334 3.680,20.343 3.701,20.361 C3.740,20.394 3.778,20.422 3.821,20.445 C3.862,20.468 3.903,20.485 3.948,20.499 C3.992,20.513 4.036,20.525 4.083,20.530 C4.130,20.536 4.175,20.536 4.222,20.532 C4.268,20.529 4.312,20.522 4.357,20.509 C4.405,20.497 4.449,20.478 4.494,20.455 C4.518,20.443 4.546,20.441 4.570,20.425 C4.611,20.398 4.656,20.370 4.707,20.341 C6.073,19.553 7.819,20.019 8.606,21.383 C8.891,21.876 9.018,22.430 8.982,22.987 C8.981,23.015 8.992,23.041 8.994,23.068 C8.996,23.118 9.001,23.165 9.013,23.213 C9.025,23.259 9.041,23.300 9.061,23.343 C9.081,23.385 9.103,23.424 9.132,23.462 C9.159,23.500 9.190,23.533 9.224,23.564 C9.259,23.596 9.293,23.623 9.334,23.648 C9.375,23.675 9.419,23.693 9.466,23.710 C9.493,23.720 9.513,23.738 9.541,23.745 L9.541,23.745 C11.371,24.188 13.283,24.198 15.122,23.764 C15.154,23.756 15.177,23.737 15.206,23.726 C15.253,23.708 15.297,23.691 15.339,23.665 C15.379,23.639 15.412,23.610 15.447,23.578 C15.481,23.545 15.513,23.514 15.541,23.476 C15.569,23.438 15.589,23.397 15.609,23.354 C15.629,23.312 15.646,23.272 15.658,23.226 C15.670,23.178 15.672,23.130 15.675,23.081 C15.676,23.049 15.688,23.021 15.685,22.989 C15.594,21.897 16.137,20.837 17.104,20.278 C18.072,19.719 19.262,19.779 20.162,20.405 C20.188,20.422 20.219,20.426 20.246,20.441 C20.291,20.464 20.334,20.485 20.381,20.499 C20.426,20.512 20.470,20.517 20.517,20.521 C20.564,20.525 20.609,20.528 20.656,20.523 C20.703,20.518 20.746,20.506 20.791,20.492 C20.836,20.479 20.878,20.465 20.920,20.442 C20.963,20.419 21.001,20.389 21.039,20.358 C21.064,20.338 21.092,20.328 21.114,20.305 L21.115,20.305 C22.421,18.918 23.373,17.242 23.901,15.417 C23.909,15.392 23.903,15.367 23.908,15.341 C23.917,15.291 23.921,15.244 23.919,15.194 C23.918,15.148 23.913,15.104 23.903,15.059 C23.893,15.012 23.879,14.969 23.860,14.926 C23.842,14.884 23.820,14.844 23.793,14.805 C23.767,14.767 23.739,14.734 23.705,14.700 C23.670,14.665 23.632,14.636 23.590,14.609 C23.568,14.595 23.554,14.573 23.530,14.561 C23.041,14.314 22.633,13.931 22.353,13.446 C21.566,12.082 22.035,10.337 23.400,9.549 C23.440,9.525 23.475,9.507 23.506,9.490 C23.530,9.478 23.544,9.456 23.566,9.442 C23.609,9.414 23.646,9.384 23.681,9.349 C23.714,9.316 23.742,9.281 23.767,9.243 C23.794,9.203 23.815,9.164 23.834,9.121 C23.852,9.077 23.865,9.035 23.875,8.988 C23.885,8.943 23.890,8.899 23.890,8.852 C23.891,8.803 23.886,8.756 23.877,8.706 C23.872,8.680 23.877,8.654 23.870,8.629 L23.870,8.629 C23.605,7.751 23.239,6.902 22.772,6.094 C22.306,5.287 21.754,4.545 21.126,3.877 ZM14.595,16.123 C12.316,17.439 9.404,16.661 8.090,14.385 C6.776,12.108 7.558,9.197 9.837,7.882 C12.116,6.566 15.028,7.344 16.343,9.620 C17.657,11.896 16.874,14.807 14.595,16.123 Z"/>
</svg>
