<svg
 xmlns="http://www.w3.org/2000/svg"
 xmlns:xlink="http://www.w3.org/1999/xlink"
 width="37px" height="16px">
<path fill-rule="evenodd"  fill="rgb(0, 176, 245)"
 d="M36.992,7.619 C36.992,7.619 31.123,11.525 29.294,12.527 C27.466,13.526 24.659,16.181 22.167,15.990 C19.675,15.799 10.736,13.418 8.769,13.681 C8.058,13.776 7.022,14.034 5.970,14.295 L3.247,15.259 C2.705,15.362 2.182,15.006 2.078,14.463 L0.027,6.656 C-0.076,6.114 0.280,5.590 0.823,5.487 L1.091,5.368 C1.122,5.083 1.152,4.797 1.204,4.500 C5.755,3.569 9.660,1.167 11.335,0.406 C13.314,-0.489 14.451,0.233 19.033,1.273 C23.612,2.313 25.589,2.428 25.589,2.428 C26.247,3.561 25.397,5.406 23.878,5.891 C22.362,6.375 16.777,5.834 15.327,5.601 C14.628,5.489 14.536,6.351 15.366,7.206 C16.254,8.119 18.515,8.886 20.216,9.403 C22.675,10.148 26.160,9.064 26.160,9.064 C26.160,9.064 31.000,6.331 34.142,5.601 C37.284,4.871 36.992,7.619 36.992,7.619 Z"/>
</svg>
