<svg
 xmlns="http://www.w3.org/2000/svg"
 xmlns:xlink="http://www.w3.org/1999/xlink"
 width="32px" height="30px">
<path fill-rule="evenodd"  fill="rgb(0, 176, 245)"
 d="M30.606,21.431 L29.006,21.431 L29.006,18.858 C29.006,15.429 27.405,12.857 24.204,12.857 L17.000,12.857 L17.000,9.855 L19.599,9.855 C20.399,9.855 20.997,9.215 20.997,8.357 L20.997,1.498 C20.997,0.641 20.399,-0.000 19.599,-0.000 L11.397,-0.000 C10.597,-0.000 9.999,0.641 9.999,1.498 L9.999,8.141 C9.999,8.998 10.597,9.638 11.397,9.638 L13.996,9.638 L13.996,12.851 L7.198,12.851 C3.997,12.851 2.998,15.635 2.998,18.854 L2.998,21.426 L1.398,21.426 C0.597,21.426 -0.000,22.066 -0.000,22.923 L-0.000,28.497 C-0.000,29.354 0.597,29.995 1.398,29.995 L6.600,29.995 C7.401,29.995 7.999,29.354 7.999,28.497 L7.999,22.929 C7.999,22.071 7.401,21.431 6.600,21.431 L5.000,21.431 L5.000,18.001 C5.000,18.001 4.802,15.000 8.399,15.000 L14.001,15.000 L14.001,21.431 L12.400,21.431 C11.600,21.431 11.002,22.071 11.002,22.929 L11.002,28.503 C11.002,29.359 11.600,30.000 12.400,30.000 L18.601,30.000 C19.401,30.000 19.999,29.359 19.999,28.503 L19.999,22.929 C19.999,22.071 19.401,21.431 18.601,21.431 L17.000,21.431 L17.000,15.000 L23.601,15.000 C26.200,15.000 26.926,16.339 27.000,18.001 L27.000,21.431 L25.399,21.431 C24.599,21.431 24.001,22.071 24.001,22.929 L24.001,28.503 C24.001,29.359 24.599,30.000 25.399,30.000 L30.601,30.000 C31.402,30.000 31.999,29.359 31.999,28.503 L31.999,22.929 C32.009,22.288 31.407,21.431 30.606,21.431 M12.001,7.500 L12.001,2.355 L19.001,2.355 L19.001,7.500 L12.001,7.500 "/>
</svg>
