<svg t="1572532668184" class="icon" viewBox="0 0 1024 1024" version="1.1" xmlns="http://www.w3.org/2000/svg" p-id="3481" width="20" height="20"><path d="M512 1007.021419c-66.526968 0-131.831742-12.948645-192.478968-38.845935a519.960774 519.960774 0 0 1-157.729032-105.967484 486.565161 486.565161 0 0 1-105.967484-157.729032A491.123613 491.123613 0 0 1 16.978581 512c0-66.526968 12.948645-131.831742 38.845935-192.478968a519.960774 519.960774 0 0 1 105.967484-157.729032A480.355097 480.355097 0 0 1 319.521032 55.824516 491.123613 491.123613 0 0 1 512 16.978581c66.526968 0 131.831742 12.948645 192.478968 38.845935a519.960774 519.960774 0 0 1 157.729032 105.967484 486.565161 486.565161 0 0 1 105.967484 157.729032 491.123613 491.123613 0 0 1 38.845935 192.478968c0 66.526968-12.948645 131.831742-38.845935 192.478968a519.960774 519.960774 0 0 1-105.967484 157.729032 486.565161 486.565161 0 0 1-157.729032 105.967484A489.009548 489.009548 0 0 1 512 1007.021419z m0-949.413161c-121.228387 0-235.453935 47.070968-320.776258 133.020903A449.569032 449.569032 0 0 0 57.608258 512c0 121.228387 47.070968 235.453935 133.020903 320.776258a451.121548 451.121548 0 0 0 320.776258 133.020903c120.666839 0 235.453935-47.070968 320.809291-133.020903A451.121548 451.121548 0 0 0 965.202581 512c0-120.666839-47.104-235.453935-133.020904-320.776258-84.199226-86.544516-198.35871-133.615484-320.214709-133.615484z" p-id="3482" fill="#ffffff"></path><path d="M666.227613 692.686452c0 27.086452-22.957419 48.887742-50.638452 48.887742-27.648 0-50.605419-21.80129-50.605419-48.887742V337.19329c0-27.086452 22.957419-48.887742 50.605419-48.887742 27.681032 0 50.638452 21.80129 50.638452 48.887742V692.686452z m-206.616774 0c0 27.086452-22.957419 48.887742-50.60542 48.887742-27.681032 0-50.638452-21.80129-50.638451-48.887742V337.19329c0-27.086452 22.957419-48.887742 50.638451-48.887742 27.648 0 50.605419 21.80129 50.60542 48.887742V692.686452z" p-id="3483" fill="#ffffff"></path></svg>
