<?xml version="1.0" standalone="no"?><!DOCTYPE svg PUBLIC "-//W3C//DTD SVG 1.1//EN" "http://www.w3.org/Graphics/SVG/1.1/DTD/svg11.dtd"><svg class="icon" width="20px" height="20.00px" viewBox="0 0 1024 1024" version="1.1" xmlns="http://www.w3.org/2000/svg"><path d="M75.39999999999998 598.6c4.299999999999999 21.8 10.2 43.1 17.6 63.7h36.7l-29.399999999999995 19.1c10.8 26.099999999999998 23.9 50.9 39.2 74.3L283 662.2h103.49999999999999L173.60000000000002 801c6.2 7.199999999999999 12.599999999999998 14.199999999999998 19.2 21l197-128.4v246.39999999999998c17.3 4.9 35 8.8 53.1 11.6v-353H75.39999999999998zM581.1 951.7c18.1-2.8 35.8-6.7 53.1-11.6V696.4l195.4 127.3c20-20.4 38.1-42.7 53.99999999999999-66.7L738 662.2h103.49999999999999l70.1 45.7c3.9000000000000004-8 7.599999999999999-16.1 11-24.299999999999997l-32.8-21.4h41.1c7.4-20.6 13.3-41.8 17.6-63.7H581.1v353.2zM442.9 72.30000000000001c-18.1 2.8-35.8 6.7-53.1 11.6v251.6L189.7 205.10000000000002c-18.8 19.8-35.8 41.3-50.8 64.2l141.8 92.4H177.2l-66.1-43.1c-4.4 9.2-8.5 18.5-12.3 28l23.2 15.1h-29c-7.4 20.5-13.3 41.8-17.6 63.6h367.5v-353zM948.6 425.4c-4.299999999999999-21.8-10.2-43.1-17.6-63.6h-33.2l26.6-17.3c-10.6-26.099999999999998-23.7-51-38.8-74.4l-140.7 91.7H641.3l210.5-137.2c-6.2-7.3-12.5-14.3-19.2-21.2L634.2 332.7V84c-17.3-4.9-35-8.8-53.1-11.6v353h367.5z" fill="#FFFFFF" /><path d="M93 662.3c2.3 6.5 4.8 12.8 7.4 19.1l29.399999999999995-19.1H93zM98.69999999999999 346.6c-2 5-3.9000000000000004 10-5.7 15.1h28.900000000000002l-23.2-15.1zM832.6 203.39999999999998C778.9000000000001 147.60000000000008 710.7 105.80000000000001 634.2 84v248.7l198.4-129.3zM389.79999999999995 84c-77.4 22-146.1 64.49999999999999-200.1 121.09999999999998l200.1 130.4V84zM192.8 822c53.5 55.1 121.09999999999998 96.4 197 117.99999999999999V693.6l-197 128.4zM931 361.8c-2.1-5.8-4.299999999999999-11.6-6.6-17.3l-26.6 17.3h33.2zM634.2 940c75.1-21.4 142.1-61.99999999999999 195.4-116.3L634.2 696.4v243.5999999999999zM922.7 683.5999999999999c2.9-7 5.7-14.199999999999998 8.3-21.4h-41.1l32.8 21.4z" fill="#002377" /><path d="M581.1 951.7v-353h367.5c5.5-28 8.4-56.99999999999999 8.4-86.6s-2.9-58.599999999999994-8.4-86.6H581.1v-353c-21.6-3.4-43.7-5.2-66.1-5.3h-6c-22.5 0.1-44.6 2-66.1 5.3v353H75.39999999999998c-5.5 28-8.4 56.99999999999999-8.4 86.6s2.9 58.599999999999994 8.4 86.6h367.5v353c21.6 3.4 43.6 5.2 66.1 5.3h5.9c22.5-0.2 44.6-2 66.2-5.3z" fill="#C2121F" /><path d="M738 662.2l145.5 94.8c10.4-15.7 19.8-32.1 28.2-49.1l-70.1-45.7H738zM744.8 361.8l140.7-91.7c-10.3-15.9-21.6-31.099999999999998-33.8-45.5L641.3 361.8h103.49999999999999zM280.7 361.8l-141.8-92.4c-10.3 15.800000000000002-19.6 32.3-27.9 49.3l66.1 43.1h103.6zM283 662.2l-143.39999999999998 93.4c10.4 15.800000000000002 21.8 30.999999999999996 34 45.3L386.5 662.1H283z" fill="#C2121F" /></svg>
